<?xml version="1.0" encoding="UTF-8" standalone="no"?>
<!-- Created with Inkscape (http://www.inkscape.org/) -->

<svg
   xmlns:dc="http://purl.org/dc/elements/1.1/"
   xmlns:cc="http://creativecommons.org/ns#"
   xmlns:rdf="http://www.w3.org/1999/02/22-rdf-syntax-ns#"
   xmlns:svg="http://www.w3.org/2000/svg"
   xmlns="http://www.w3.org/2000/svg"
   xmlns:sodipodi="http://sodipodi.sourceforge.net/DTD/sodipodi-0.dtd"
   xmlns:inkscape="http://www.inkscape.org/namespaces/inkscape"
   version="1.1"
   width="620"
   height="542.94"
   id="svg2"
   inkscape:version="0.48.3.1 r9886"
   sodipodi:docname="5-Methylcytosine.svg"
   inkscape:export-filename="/home/bag/projects/presentations/ZBSA/resources/img/5-Methylcytosine.png"
   inkscape:export-xdpi="400"
   inkscape:export-ydpi="400">
  <sodipodi:namedview
     pagecolor="#ffffff"
     bordercolor="#666666"
     borderopacity="1"
     objecttolerance="10"
     gridtolerance="10"
     guidetolerance="10"
     inkscape:pageopacity="0"
     inkscape:pageshadow="2"
     inkscape:window-width="1366"
     inkscape:window-height="717"
     id="namedview7"
     showgrid="false"
     inkscape:zoom="0.61471691"
     inkscape:cx="430.59679"
     inkscape:cy="250.09905"
     inkscape:window-x="0"
     inkscape:window-y="27"
     inkscape:window-maximized="1"
     inkscape:current-layer="svg2" />
  <defs
     id="defs4" />
  <metadata
     id="metadata7">
    <rdf:RDF>
      <cc:Work
         rdf:about="">
        <dc:format>image/svg+xml</dc:format>
        <dc:type
           rdf:resource="http://purl.org/dc/dcmitype/StillImage" />
        <dc:title></dc:title>
      </cc:Work>
    </rdf:RDF>
  </metadata>
  <g
     transform="translate(-52,-254.42)"
     id="layer1">
    <path
       d="m 383.16,758.25 0,-29.1 4.02,0 4.01,0 0,12.04 0,12.05 15.06,0 15.05,0 0,-12.05 0,-12.04 4.01,0 4.02,0 0,29.1 0,29.11 -4.02,0 -4.01,0 0,-13.55 0,-13.55 -15.05,0 -15.06,0 0,13.55 0,13.55 -4.01,0 -4.02,0 0,-29.11 z m 243.17,-38.52 c -6.38,-2.09 -11.86,-6.99 -15.04,-13.45 -2.48,-5.06 -2.81,-6.86 -2.81,-15.27 0,-8.42 0.33,-10.21 2.82,-15.28 6.04,-12.3 18.57,-17.47 32.37,-13.35 10.64,3.17 17.19,12.47 18.2,25.82 1.4,18.52 -8.6,31.53 -24.99,32.53 -3.71,0.22 -8.07,-0.19 -10.55,-1 z m 19.51,-9.28 c 4.86,-3.86 7.36,-8.97 8.03,-16.4 1.04,-11.39 -3.2,-20.59 -11.15,-24.21 -10.38,-4.7 -21.99,0.6 -25.23,11.53 -5.35,18 3.59,33.43 18.82,32.46 4.56,-0.29 6.54,-0.99 9.53,-3.38 z m -262.68,-19.44 0,-29.1 4.27,0 4.26,0 14.81,22.31 14.79,22.3 0,-22.33 0,-22.33 4.01,0 4.02,0 0,29.1 0,29.11 -4.27,0 -4.26,0 -14.81,-22.31 -14.79,-22.3 0,22.33 0,22.33 -4.01,0 -4.02,0 0,-29.11 z m 171.15,-34.12 -43.12,-24.98 -3.05,1.84 c -1.67,1.02 -17.26,10.05 -34.63,20.07 -28.95,16.69 -31.71,18.06 -32.88,16.46 -0.71,-0.98 -1.15,-2.19 -0.98,-2.7 0.18,-0.53 18.01,-11.15 39.64,-23.63 l 39.33,-22.69 0,-45.42 0,-45.41 2.51,0 2.51,0 0,39.55 0,39.57 43.91,25.33 c 24.15,13.94 44.05,25.45 44.23,25.58 0.5,0.38 -2.23,4.46 -2.99,4.46 -0.37,0 -19.12,-10.67 -41.65,-23.71 -22.54,-13.03 -41.55,-23.92 -42.24,-24.19 -0.89,-0.35 -1.26,0.75 -1.26,3.68 0,3.58 -0.42,4.4 -3,5.88 -1.66,0.93 -2.99,1.94 -2.98,2.21 0,0.27 18.88,11.3 41.9,24.5 23.02,13.2 42.01,24.11 42.19,24.25 0.76,0.56 -2,4.44 -3.13,4.39 -0.66,0 -20.62,-11.29 -44.34,-25.04 z m -224.84,-8.52 -40.15,-23.3 -0.29,-66.64 -0.3,-66.64 -40.09,-23.06 c -22.06,-12.69 -40.11,-23.56 -40.11,-24.15 0,-0.59 0.56,-1.79 1.25,-2.64 1.1,-1.36 6.34,1.39 41.36,21.71 l 40.11,23.27 23.12,-13.36 c 12.72,-7.34 37.9,-21.82 55.96,-32.18 l 32.82,-18.84 0,-45.92 0,-45.91 3.01,0 3,0 0.26,45.9 0.26,45.91 38.64,22.33 c 21.25,12.28 38.77,22.93 38.93,23.69 0.16,0.74 -0.37,1.91 -1.19,2.59 -1.22,1.01 -8.31,-2.71 -40.67,-21.43 l -39.19,-22.66 -56.19,32.37 -56.19,32.38 0,64.73 0,64.74 37.88,21.79 c 20.82,11.98 38.69,22.38 39.7,23.12 1.78,1.3 1.78,1.41 0,3.41 -1.84,2.07 -1.94,2.02 -41.98,-21.21 z m -21.58,-91.85 0,-55.2 3.01,0 3.01,0 0,55.2 0,55.2 -3.01,0 -3.01,0 0,-55.2 z m 189.69,-64.23 0,-29.1 4.26,0 4.27,0 14.8,22.31 14.79,22.3 0,-22.33 0,-22.33 4.02,0 4.01,0 0,29.1 0,29.11 -4.26,0 -4.27,0 -14.8,-22.31 -14.79,-22.3 0,22.33 0,22.33 -4.02,0 -4.01,0 0,-29.11 z m -57.71,-22.74 c -18.77,-10.84 -34.28,-19.82 -34.46,-19.97 -0.18,-0.14 0.27,-1.39 1.01,-2.76 l 1.33,-2.5 34.45,19.87 c 18.93,10.93 34.67,20.1 34.96,20.39 0.89,0.9 -0.72,4.7 -1.98,4.68 -0.66,0 -16.54,-8.88 -35.31,-19.71 z m -317.41,0.66 c -1.81,-1.09 -4.05,-3.6 -4.99,-5.57 -1.47,-3.11 -1.51,-3.7 -0.23,-4.5 2.49,-1.59 3.68,-1.09 5,2.08 1.48,3.6 3.7,4.98 7.99,4.98 5.91,0 9.87,-6.75 7.05,-12.03 -1.2,-2.24 -7.04,-4.35 -9.47,-3.41 -1.4,0.53 -1.69,0.21 -1.42,-1.58 0.24,-1.59 1.5,-2.64 4.26,-3.58 5.95,-2.04 7.37,-5.75 3.61,-9.51 -3.73,-3.73 -11.4,-1.43 -13.2,3.96 -0.29,0.88 -1.19,1.09 -2.7,0.61 -2.85,-0.9 -2.16,-3.82 1.86,-7.97 3.99,-4.1 11.14,-4.76 15.97,-1.46 5.54,3.79 6.57,10.79 2.15,14.58 -1.84,1.56 -1.79,1.72 1.53,4.86 10.57,9.97 -4.74,26.28 -17.41,18.54 z m 45.6,-15.5 c -6.32,-2.26 -9.62,-5.57 -13.52,-13.6 -2.32,-4.79 -2.68,-6.79 -2.69,-15.06 0,-10.54 2.04,-16.87 7.3,-22.42 5.99,-6.31 17.11,-9.17 26.16,-6.72 5.25,1.41 11.55,7.08 13.67,12.28 l 1.51,3.73 -3.76,1.03 c -2.07,0.57 -3.87,0.71 -4.01,0.3 -1.02,-2.97 -4.78,-7.61 -7.51,-9.28 -7.26,-4.43 -18.38,-1.01 -22.85,7.03 -2.18,3.94 -2.51,5.75 -2.51,14.05 0,8.3 0.33,10.12 2.51,14.05 3.36,6.04 9.56,9.35 16.38,8.75 6.04,-0.55 9.51,-3.03 12.73,-9.12 2.42,-4.56 2.64,-4.73 6.02,-4.1 1.94,0.35 3.65,0.78 3.83,0.95 1.07,1.04 -4.72,11.16 -7.97,13.94 -6.43,5.5 -16.8,7.22 -25.29,4.19 z M 62,426.05 l 0,-29.1 4.015,0 4.014,0 0,12.04 0,12.04 15.055,0 15.056,0 0,-12.04 0,-12.04 4.01,0 4.02,0 0,29.1 0,29.11 -4.02,0 -4.01,0 0,-13.55 0,-13.55 -15.056,0 -15.055,0 0,13.55 0,13.55 -4.014,0 -4.015,0 0,-29.11 z m 432.57,-87.38 c 0,-2.57 2.87,-6.09 12.65,-15.49 8.98,-8.63 10.45,-10.48 10.44,-13.23 0,-6.67 -9.62,-9.87 -14.61,-4.89 -1.36,1.37 -2.46,3.18 -2.46,4.02 0,1.71 -1.75,2.01 -3.88,0.66 -1.59,-1.01 -0.75,-4.66 1.74,-7.49 8.42,-9.58 25.53,-3.48 23.93,8.53 -0.69,5.04 -4.01,9.36 -12.78,16.57 -3.85,3.17 -7.01,6.13 -7.01,6.57 0,0.44 4.52,0.8 10.04,0.8 10.04,0 10.04,0 10.04,2.51 l 0,2.51 -14.05,0 c -9.28,0 -14.05,-0.36 -14.05,-1.07 z m -111.41,-45.1 0,-29.1 4.27,0 4.26,0 14.81,22.3 14.79,22.31 0,-22.33 0,-22.33 4.01,0 4.02,0 0,29.1 0,29.11 -4.27,0 -4.26,0 -14.81,-22.31 -14.79,-22.3 0,22.33 0,22.33 -4.01,0 -4.02,0 0,-29.11 z m 57.21,0 0,-29.1 4.01,0 4.02,0 0,12.04 0,12.05 15.05,0 15.06,0 0,-12.05 0,-12.04 4.01,0 4.02,0 0,29.1 0,29.11 -4.02,0 -4.01,0 0,-13.55 0,-13.55 -15.06,0 -15.05,0 0,13.55 0,13.55 -4.02,0 -4.01,0 0,-29.11 z"
       id="path2996"
       style="fill:#000000" />
  </g>
  <path
     style="fill:#aa0000"
     d="m 10.349873,171.72829 0,-28.87508 3.660222,0 3.660221,0 0,12.20074 0,12.20074 15.454268,0 15.454268,0 0,-12.20074 0,-12.20074 3.660222,0 3.660221,0 0,28.87508 0,28.87508 -3.660221,0 -3.660222,0 0,-13.8275 0,-13.8275 -15.454268,0 -15.454268,0 0,13.8275 0,13.8275 -3.660221,0 -3.660222,0 0,-28.87508 z"
     id="path2984"
     inkscape:connector-curvature="0" />
  <path
     style="fill:#aa0000"
     d="m 74.437389,216.88045 c -3.530068,-1.06411 -6.844528,-3.82166 -8.312969,-6.91617 -2.384054,-5.02402 0.876422,-6.43659 3.722553,-1.61276 2.119587,3.59244 3.714478,4.45259 8.255953,4.45259 2.799677,0 4.076382,-0.4736 5.727396,-2.12462 2.824168,-2.82416 3.587735,-6.99019 1.785366,-9.74095 -1.626347,-2.48212 -6.438915,-4.68783 -9.112918,-4.17667 -3.370713,0.64436 -2.020628,-1.76217 2.171236,-3.87022 5.373074,-2.70208 6.700494,-4.98578 5.18842,-8.92618 -0.571237,-1.48862 -4.422987,-3.69666 -6.448521,-3.69666 -2.438515,0 -7.011655,2.66633 -7.89379,4.6024 -0.895108,1.96455 -3.357574,2.56263 -4.296439,1.04351 -0.646729,-1.04642 2.995863,-6.46696 5.309267,-7.90071 0.918262,-0.5691 3.24329,-1.25043 5.16673,-1.51407 8.893489,-1.21898 16.095605,8.22428 11.108159,14.56479 -2.071607,2.63362 -2.052199,4.02121 0.08327,5.95378 2.302226,2.08349 3.983639,5.4848 3.983639,8.05847 0,4.72369 -4.860225,10.22084 -10.395887,11.75825 -3.399915,0.94425 -3.067324,0.94176 -6.041468,0.0452 l 0,0 z"
     id="path2986"
     inkscape:connector-curvature="0" />
  <path
     style="fill:#aa0000"
     d="m 117.98005,200.29507 c -5.67755,-1.85746 -9.26538,-4.60142 -12.44115,-9.51494 -4.35221,-6.73372 -5.18112,-10.48217 -4.70534,-21.2781 0.60747,-13.78399 3.84614,-19.65335 13.45469,-24.38363 4.76762,-2.34708 6.22045,-2.67188 11.95153,-2.67188 5.63032,0 7.03821,0.30219 10.27618,2.20571 4.08146,2.3994 8.08052,6.54388 10.12025,10.48829 1.5169,2.93335 1.41378,3.10104 -2.44143,3.97054 -2.65978,0.59987 -3.03722,0.461 -4.06196,-1.49455 -1.30247,-2.48554 -5.73748,-6.82821 -8.33213,-8.15864 -2.55469,-1.30993 -9.56613,-1.12131 -13.09372,0.35224 -3.86046,1.61261 -7.20711,4.79568 -9.27917,8.82561 -1.35396,2.63332 -1.63559,4.78451 -1.65052,12.60743 -0.0124,6.49841 0.35372,10.31786 1.17706,12.27919 3.11018,7.40893 10.16643,11.88974 17.52727,11.13003 5.84572,-0.60333 8.92142,-2.59323 12.867,-8.32464 2.9319,-4.25891 3.61429,-4.80786 5.69368,-4.58029 3.78069,0.41376 4.1669,1.43486 2.05119,5.42302 -3.10268,5.8486 -7.00681,9.80312 -11.65037,11.80073 -5.24119,2.2547 -12.85385,2.83182 -17.46306,1.32388 l 0,0 z"
     id="path2988"
     inkscape:connector-curvature="0" />
  <text
     xml:space="preserve"
     style="font-size:100px;font-style:normal;font-weight:normal;line-height:125%;letter-spacing:0px;word-spacing:0px;fill:#000000;fill-opacity:1;stroke:none;font-family:Sans"
     x="331.62067"
     y="349.02042"
     id="text2990"
     sodipodi:linespacing="125%"><tspan
       sodipodi:role="line"
       id="tspan2992"
       x="331.62067"
       y="349.02042"
       style="font-size:100px">C</tspan></text>
  <text
     xml:space="preserve"
     style="font-size:48px;font-style:normal;font-weight:normal;line-height:125%;letter-spacing:0px;word-spacing:0px;fill:#000000;fill-opacity:1;stroke:none;font-family:Sans"
     x="304.27197"
     y="282.36169"
     id="text2994"
     sodipodi:linespacing="125%"><tspan
       sodipodi:role="line"
       id="tspan2996"
       x="304.27197"
       y="282.36169">m</tspan></text>
  <path
     style="fill:#ff0000"
     d="m 10.566044,171.72829 0,-28.87508 3.25353,0 3.253531,0 0,12.20074 0,12.20074 15.860959,0 15.86096,0 0,-12.20074 0,-12.20074 3.25353,0 3.25353,0 0,28.87508 0,28.87508 -3.25353,0 -3.25353,0 0,-13.8275 0,-13.8275 -15.86096,0 -15.860959,0 0,13.8275 0,13.8275 -3.253531,0 -3.25353,0 0,-28.87508 z"
     id="path2998"
     inkscape:connector-curvature="0" />
  <path
     style="fill:#ff0000"
     d="m 72.370427,215.36496 c -3.220324,-1.71129 -6.494585,-6.03642 -6.493928,-8.57816 3.69e-4,-1.42676 0.622298,-1.07021 3.756739,2.15374 3.539558,3.64064 4.002455,3.86357 8.022467,3.86357 3.514886,0 4.640322,-0.37415 6.390788,-2.12462 2.779509,-2.77951 3.586864,-6.99152 1.848632,-9.6444 -1.673981,-2.55482 -4.130642,-3.88573 -8.225021,-4.45596 l -3.25353,-0.45312 4.880295,-3.25165 c 4.305785,-2.86887 4.909358,-3.59974 5.127179,-6.20855 0.548503,-6.56935 -8.402353,-8.64102 -13.979401,-3.23554 -4.81018,4.66222 -6.381348,2.46016 -1.923871,-2.69638 2.178715,-2.52041 3.322893,-3.13593 6.493581,-3.49331 4.648514,-0.52396 8.054885,0.73996 10.806041,4.00952 2.445299,2.90607 2.572607,6.12176 0.402643,10.17045 -1.457599,2.71956 -1.495264,3.17338 -0.38792,4.674 5.010075,6.78939 5.535047,9.46264 2.74486,13.97726 -2.038093,3.2977 -7.699883,6.79921 -10.994029,6.79921 -1.309757,0 -3.656743,-0.67773 -5.215525,-1.50606 z"
     id="path3000"
     inkscape:connector-curvature="0" />
  <path
     style="fill:#ff0000"
     d="m 116.37534,199.2559 c -4.68105,-1.7175 -9.775,-6.88673 -12.74271,-12.93103 -2.20652,-4.49399 -2.3694,-5.46872 -2.30326,-13.7832 0.0971,-12.21295 1.68772,-17.51324 6.71679,-22.38244 7.69944,-7.45467 20.09257,-9.60102 28.28983,-4.89947 3.94411,2.26215 7.83453,6.32095 9.97998,10.41191 0.86004,1.63994 0.73565,1.92455 -1.15533,2.6435 -1.16553,0.44313 -2.29668,0.80569 -2.51367,0.80569 -0.21699,0 -2.67065,-2.37914 -5.45258,-5.28698 l -5.05804,-5.28699 -5.62503,0 c -6.72431,0 -11.48117,1.98445 -15.00532,6.25985 -3.47808,4.21951 -4.41317,8.6297 -3.99284,18.83144 0.32083,7.78706 0.62705,9.28039 2.58974,12.62947 3.06038,5.22214 7.56025,8.05323 13.48088,8.48149 6.79112,0.49122 10.93923,-1.57065 15.9237,-7.91508 3.46777,-4.41392 4.21248,-4.97114 6.03314,-4.51418 3.0031,0.75373 3.0365,0.92814 0.93603,4.88756 -2.6325,4.9623 -6.98952,9.23988 -11.40625,11.19826 -4.95637,2.19765 -13.91249,2.60495 -18.69506,0.8502 l 0,0 z"
     id="path3002"
     inkscape:connector-curvature="0" />
</svg>
